<?xml version="1.0" standalone="no"?>
<!DOCTYPE svg PUBLIC "-//W3C//DTD SVG 20010904//EN"
 "http://www.w3.org/TR/2001/REC-SVG-20010904/DTD/svg10.dtd">
<svg version="1.0" xmlns="http://www.w3.org/2000/svg"
 width="300.000000pt" height="300.000000pt" viewBox="0 0 300.000000 300.000000"
 preserveAspectRatio="xMidYMid meet">
<metadata>
Created by potrace 1.10, written by Peter Selinger 2001-2011
</metadata>
<g transform="translate(0.000000,300.000000) scale(0.100000,-0.100000)"
fill="#000000" stroke="none">
<path d="M1216 2581 c-4 -6 -14 -11 -22 -11 -19 0 -88 -48 -133 -92 -68 -67
-72 -88 -70 -371 3 -352 2 -377 -16 -377 -8 0 -15 -4 -15 -10 0 -5 -9 -10 -19
-10 -11 0 -21 -5 -23 -11 -3 -9 -10 -8 -25 2 -19 11 -30 9 -93 -24 -40 -20
-78 -37 -86 -37 -8 0 -14 -4 -14 -10 0 -5 -7 -10 -15 -10 -26 0 -65 -31 -65
-52 0 -25 29 -76 48 -83 7 -3 33 6 58 20 25 14 51 25 59 25 7 0 15 3 17 8 2 4
31 20 66 36 41 20 62 36 62 47 0 11 13 22 34 29 19 6 40 18 46 26 7 7 23 14
36 14 13 0 24 5 24 10 0 6 12 10 26 10 14 0 23 4 19 10 -4 6 5 10 19 10 14 0
26 4 26 9 0 5 13 12 29 16 29 6 29 6 23 70 -16 211 209 303 352 144 95 -106
84 -258 -23 -334 -36 -26 -52 -30 -105 -30 -52 0 -70 5 -106 29 -23 15 -53 40
-66 55 -18 21 -25 24 -35 14 -7 -7 -21 -13 -30 -13 -9 0 -20 -7 -23 -16 -4
-10 -13 -13 -26 -9 -14 5 -20 2 -20 -9 0 -9 -8 -16 -19 -16 -11 0 -23 -4 -26
-10 -3 -5 -15 -10 -26 -10 -10 0 -19 -4 -19 -9 0 -5 -10 -11 -22 -13 -22 -3
-23 -8 -26 -103 -2 -55 -1 -109 2 -121 6 -21 45 -37 116 -48 19 -3 67 -13 105
-21 39 -8 88 -18 110 -21 22 -3 49 -9 60 -14 11 -5 38 -11 60 -14 22 -3 60
-10 85 -16 25 -6 74 -17 110 -24 36 -8 83 -19 104 -24 26 -7 46 -7 58 -1 17 9
18 37 18 519 l0 508 -32 11 c-40 12 -584 127 -651 136 -26 4 -50 11 -53 17 -7
11 66 78 109 99 87 43 81 42 148 25 66 -16 307 -67 532 -113 l127 -26 0 -483
0 -484 27 -6 c53 -14 53 -14 53 522 0 411 -2 495 -14 507 -8 7 -50 21 -93 30
-43 9 -121 25 -173 37 -93 20 -300 63 -390 82 -78 16 -187 21 -194 9z m-81
-252 c22 -5 94 -20 161 -34 349 -70 468 -98 476 -110 11 -15 10 -943 -1 -949
-9 -6 -230 35 -286 52 -16 5 -61 15 -100 22 -38 6 -83 16 -100 20 -16 5 -66
16 -110 25 -44 9 -94 21 -112 26 l-32 10 2 85 c2 98 -6 87 122 145 l80 37 30
-24 c42 -35 130 -74 165 -74 53 0 138 39 170 78 48 59 62 98 62 173 -1 82 -30
147 -90 201 -51 46 -69 55 -131 69 -142 30 -271 -88 -271 -248 l0 -44 -65 -30
c-35 -16 -67 -29 -70 -29 -10 0 -5 622 6 641 9 18 11 18 32 -6 12 -15 40 -30
62 -36z m-243 -684 c1 -12 -180 -105 -205 -105 -22 0 -20 29 3 41 113 64 199
91 202 64z"/>
<path d="M1360 1983 c-23 -8 -60 -45 -76 -75 -21 -40 -17 -99 9 -149 32 -60
77 -89 139 -89 86 0 138 55 138 145 0 95 -63 168 -149 171 -25 1 -53 -1 -61
-3z m117 -43 c40 -24 66 -62 57 -84 -9 -24 -22 -20 -39 14 -20 39 -49 53 -96
46 -39 -6 -55 4 -45 29 8 22 84 19 123 -5z m-122 -50 c3 -5 21 -10 39 -10 21
0 46 -10 69 -27 19 -16 43 -33 53 -39 16 -9 16 -14 5 -43 -18 -42 -47 -61 -95
-61 -33 0 -45 7 -78 40 -31 33 -38 48 -38 80 0 21 3 45 6 54 7 18 30 21 39 6z"/>
<path d="M532 978 c3 -7 14 -14 26 -16 21 -3 22 -7 22 -142 0 -135 -1 -139
-22 -142 -12 -2 -23 -9 -26 -15 -3 -10 17 -13 77 -13 65 0 81 3 81 15 0 9 -9
15 -25 15 l-25 0 0 139 c0 136 1 140 22 143 12 2 23 9 26 16 3 9 -17 12 -78
12 -61 0 -81 -3 -78 -12z"/>
<path d="M780 975 c0 -9 9 -15 25 -15 l25 0 0 -140 0 -140 -25 0 c-16 0 -25
-6 -25 -15 0 -12 16 -15 81 -15 60 0 80 3 77 13 -3 6 -14 13 -26 15 -20 3 -22
9 -22 68 0 45 4 64 13 64 22 0 32 -14 67 -87 l35 -72 48 0 c35 -1 47 3 47 14
0 9 -9 15 -22 15 -18 0 -31 15 -56 61 l-33 60 30 28 c50 47 41 115 -20 145
-45 22 -219 23 -219 1z m188 -31 c15 -10 22 -25 22 -46 0 -45 -25 -68 -73 -68
-36 0 -39 2 -33 23 3 12 6 41 6 65 0 39 2 42 28 42 15 0 38 -7 50 -16z"/>
<path d="M1170 975 c0 -8 9 -15 20 -15 19 0 20 -7 20 -147 0 -140 -1 -147 -25
-179 -28 -36 -32 -54 -12 -54 18 0 77 59 88 88 5 13 9 84 9 158 l0 134 25 0
c16 0 25 6 25 15 0 12 -15 15 -75 15 -60 0 -75 -3 -75 -15z"/>
<path d="M1402 938 c2 -39 7 -53 18 -53 10 0 17 13 20 35 5 32 8 35 43 38 l37
3 0 -140 c0 -136 -1 -140 -22 -143 -12 -2 -23 -9 -26 -15 -3 -10 17 -13 78
-13 61 0 81 3 78 13 -3 6 -14 13 -26 15 -24 4 -24 9 -26 204 l-1 78 37 0 c33
0 37 -3 45 -37 14 -60 33 -53 33 11 l0 56 -146 0 -145 0 3 -52z"/>
<path d="M1857 895 c-20 -52 -37 -99 -37 -103 0 -5 -11 -31 -25 -59 -17 -37
-31 -52 -47 -55 -48 -7 -20 -23 45 -26 45 -2 67 1 67 8 0 7 -9 14 -20 17 -11
3 -20 13 -20 22 0 34 17 44 77 46 58 2 60 1 71 -27 10 -26 8 -30 -14 -38 -43
-17 -16 -30 62 -30 59 0 74 3 74 15 0 9 -9 15 -21 15 -27 0 -49 23 -49 53 0
13 -3 27 -7 31 -7 6 -20 41 -49 126 -45 134 -57 135 -107 5z m64 -47 c7 -29
12 -55 11 -57 -2 -2 2 -7 9 -12 8 -5 -8 -7 -38 -7 l-51 1 14 46 c8 25 17 56
20 68 9 32 18 22 35 -39z"/>
<path d="M2152 978 c3 -7 15 -15 29 -18 24 -6 24 -6 24 -140 0 -132 0 -134
-23 -140 -13 -3 -23 -9 -23 -15 1 -6 52 -10 132 -10 l131 0 3 46 c4 66 -10 83
-30 37 -8 -21 -15 -42 -15 -48 0 -6 -25 -10 -60 -10 l-60 0 0 66 0 67 55 -6
c53 -5 55 -5 55 19 0 19 -4 24 -17 20 -10 -3 -34 -6 -53 -8 l-35 -3 -3 63 -3
63 58 -3 c57 -3 58 -3 61 -35 2 -23 8 -33 20 -33 14 0 16 8 14 50 l-4 50 -130
0 c-98 0 -129 -3 -126 -12z"/>
</g>
</svg>
